<?xml version="1.0" encoding="UTF-8"?>
<svg width="160px" height="177px" viewBox="0 0 160 177" version="1.1" xmlns="http://www.w3.org/2000/svg" xmlns:xlink="http://www.w3.org/1999/xlink">
    <title>icon_soundeffects_on</title>
    <g id="Page-1" stroke="none" stroke-width="1" fill="none" fill-rule="evenodd">
        <g id="icon_soundeffects_on" transform="translate(80, 88.0669) scale(-1, 1) translate(-80, -88.0669)" fill="#52946B" fill-rule="nonzero">
            <path d="M16.84,0 C19.168,0 21.052,1.884 21.052,4.212 L21.052,42.432 C28.4744932,44.3270555 33.6719775,51.0074193 33.684,58.668 C33.6701538,66.32709 28.4730527,73.0053156 21.052,74.9 L21.052,171.788 C21.0993215,173.323033 20.3074105,174.762154 18.9853597,175.543657 C17.6633089,176.32516 16.0206911,176.32516 14.6986403,175.543657 C13.3765895,174.762154 12.5846785,173.323033 12.632,171.788 L12.632,74.9 C5.21094732,73.0053156 0.0138462474,66.32709 0,58.668 C0.0120224604,51.0074193 5.20950675,44.3270555 12.632,42.432 L12.632,4.212 C12.632,1.88 14.516,0 16.84,0 Z M143.16,0 C145.48,0 147.368,1.884 147.368,4.212 L147.368,55 C154.791934,56.8954263 159.989802,63.5779287 160,71.24 C159.986154,78.89909 154.789053,85.5773156 147.368,87.472 L147.368,171.792 C147.415321,173.327033 146.623411,174.766154 145.30136,175.547657 C143.979309,176.32916 142.336691,176.32916 141.01464,175.547657 C139.692589,174.766154 138.900679,173.327033 138.948,171.792 L138.948,87.472 C131.526947,85.5773156 126.329846,78.89909 126.316,71.24 C126.328022,63.5794193 131.525507,56.8990555 138.948,55.004 L138.948,4.212 C138.948,1.884 140.832,0 143.156,0 L143.16,0 Z M80,0 C82.324,0 84.212,1.884 84.212,4.212 L84.212,109.48 C91.6344932,111.375056 96.8319775,118.055419 96.844,125.716 C96.8301538,133.37509 91.6330527,140.053316 84.212,141.948 L84.212,171.788 C84.212,174.114223 82.3262234,176 80,176 C77.6737766,176 75.788,174.114223 75.788,171.788 L75.788,141.948 C68.3669473,140.053316 63.1698462,133.37509 63.156,125.716 C63.1680225,118.055419 68.3655068,111.375056 75.788,109.48 L75.788,4.212 C75.788,1.88 77.68,0 80,0 Z" id="Shape"></path>
        </g>
    </g>
</svg>