<?xml version="1.0" encoding="UTF-8"?>
<svg width="165px" height="174px" viewBox="0 0 165 174" version="1.1" xmlns="http://www.w3.org/2000/svg" xmlns:xlink="http://www.w3.org/1999/xlink">
    <title>hht_sound_effect_mute_1</title>
    <g id="Page-1" stroke="none" stroke-width="1" fill="none" fill-rule="evenodd">
        <g id="hht_sound_effect_mute_1" transform="translate(82.464, 86.8968) scale(-1, 1) translate(-82.464, -86.8968)" fill="#52946B" fill-rule="nonzero">
            <path d="M23.4960003,167.668 L23.4960003,169.656 C23.496506,171.05327 22.7914922,172.356335 21.6216217,173.120382 C20.4517511,173.884428 18.9751989,174.006151 17.696,173.444 L23.4960003,167.668 L23.4960003,167.668 Z M147.632,44.032 L147.632,54.312 C154.939466,56.2028261 160.043678,62.7958686 160.043678,70.344 C160.043678,77.8921314 154.939466,84.4851739 147.632,86.376 L147.632,169.656 C147.632,171.94025 145.78025,173.792 143.496,173.792 C141.21175,173.792 139.36,171.94025 139.36,169.656 L139.36,86.376 C134.502059,85.1207161 130.475215,81.7305914 128.410328,77.1576744 C126.345441,72.5847573 126.46521,67.3222419 128.736,62.848 L136.056,55.556 C137.108376,55.0255823 138.214735,54.6098595 139.356,54.316 L139.356,52.272 L147.632,44.032 Z M85.564,105.848 L85.564,108.108 C92.8676803,110.0016 97.9679562,116.592838 97.9679562,124.138 C97.9679562,131.683162 92.8676803,138.2744 85.564,140.168 L85.564,169.656 C85.564,171.94025 83.7122497,173.792 81.428,173.792 C79.1437503,173.792 77.292,171.94025 77.292,169.656 L77.288,140.168 C70.7598304,138.476512 65.9082997,132.996987 65.02,126.312 L85.564,105.848 Z M19.36,0 C21.644,0 23.496,1.852 23.496,4.136 L23.5,41.9 C30.8036803,43.7936005 35.9039562,50.384838 35.9039562,57.93 C35.9039562,65.475162 30.8036803,72.0663995 23.5,73.96 L23.496,132.632 L15.22,140.876 L15.22,73.96 C7.91631966,72.0663995 2.81604379,65.475162 2.81604379,57.93 C2.81604379,50.384838 7.91631966,43.7936005 15.22,41.9 L15.22,4.14 C15.22,1.848 17.076,0 19.36,0 Z M81.428,0 C83.716,0 85.568,1.852 85.568,4.136 L85.564,70.816 L77.284,79.06 L77.292,4.14 C77.292,1.852 79.144,0 81.428,0 Z M143.496,0 C145.784,0 147.636,1.852 147.636,4.136 L147.632,8.996 L139.356,17.24 L139.356,4.136 C139.356,1.856 141.212,0 143.496,0 L143.496,0 Z" id="Shape"></path>
            <polygon id="Path" points="159.308 9.568 164.928 15.26 5.616 172.5 0 166.808"></polygon>
        </g>
    </g>
</svg>