<?xml version="1.0" encoding="UTF-8"?>
<svg width="24px" height="18px" viewBox="0 0 24 18" version="1.1" xmlns="http://www.w3.org/2000/svg" xmlns:xlink="http://www.w3.org/1999/xlink">
    <title>icon_poses_sel</title>
    <g id="Page-1" stroke="none" stroke-width="1" fill="none" fill-rule="evenodd">
        <g id="icon_poses_sel" transform="translate(-0, -0)" fill="#52946B" fill-rule="nonzero">
            <path d="M23.7866854,8.96451494 C23.5805132,8.6022902 23.2374171,8.33812068 22.8345244,8.23139105 C22.1109637,8.04520497 21.3632615,7.97033357 20.6171497,8.00935352 C21.0172173,6.02401802 20.7171666,4.45375265 20.4171159,3.52259529 C20.1635337,2.73022283 19.3501657,2.25950773 18.5367982,2.4344114 C17.5190483,2.66107822 16.5513121,3.07190002 15.6813156,3.64661625 C15.0441575,2.34503835 14.1164752,1.20725017 12.9698574,0.321054256 C12.3990943,-0.107018085 11.614295,-0.107018085 11.0435319,0.321054256 C9.8950945,1.20668753 8.96566502,2.34452001 8.32707279,3.64661625 C7.45707629,3.07190002 6.48934011,2.66107822 5.47159024,2.4344114 C4.65832266,2.25859874 3.84465112,2.72974011 3.59227264,3.52259529 C3.29222194,4.45375265 2.99217123,6.02301785 3.38623783,8.00935352 C2.64012605,7.97033357 1.89242381,8.04520497 1.16886311,8.23139105 C0.765970417,8.33812068 0.422874396,8.6022902 0.216702197,8.96451494 C0.00121017456,9.33529611 -0.056441964,9.77705562 0.0566751535,10.1907222 C0.395732452,11.4489348 1.4369084,13.8403389 4.59044133,15.7246574 C7.74397425,17.6089758 10.5144424,17.6029749 12.0066946,17.6029749 C13.4989468,17.6029749 16.2744158,17.6029749 19.4079454,15.7246574 C22.5614783,13.8403389 23.6026543,11.4489348 23.9417116,10.1907222 C24.0563342,9.77771886 24.0004883,9.33599624 23.7866854,8.96451494 Z M5.41057992,14.3514253 C2.74712982,12.7591562 1.88198362,10.8068263 1.59993595,9.77165134 C2.33580431,9.58995031 3.09957079,9.55023445 3.85031625,9.65463156 C4.1009573,10.3260195 4.40706633,10.9753721 4.76547091,11.5959596 C5.64547624,13.1131431 6.79837299,14.4545724 8.16604558,15.5526283 C7.19893473,15.2745735 6.27252602,14.8707198 5.41057992,14.3514253 L5.41057992,14.3514253 Z M12.0016938,15.8426773 C11.0685361,15.14856 8.80115291,13.0192002 8.80115291,8.71847336 C8.80115291,4.47075553 11.0395312,2.32439281 12.0016938,1.60027043 C12.9638564,2.32639314 15.2022346,4.47275586 15.2022346,8.7204737 C15.2022346,13.0192002 12.9348515,15.14856 12.0016938,15.8426773 Z M22.4034516,9.77365168 C22.1264048,10.7978248 21.2632589,12.7551555 18.5938078,14.3514253 C17.7318098,14.8703721 16.8054032,15.2738886 15.8383421,15.5516281 C17.2060147,14.4535722 18.3589115,13.1121429 19.2389168,11.5949595 C19.5973214,10.9743719 19.9034304,10.3250193 20.1540715,9.65363139 C20.9046244,9.55021269 21.6680033,9.5906049 22.4034516,9.77265151 L22.4034516,9.77365168 Z" id="Shape"></path>
        </g>
    </g>
</svg>