<?xml version="1.0" standalone="no"?><!DOCTYPE svg PUBLIC "-//W3C//DTD SVG 1.1//EN" "http://www.w3.org/Graphics/SVG/1.1/DTD/svg11.dtd"><svg t="1755481674975" class="icon" viewBox="0 0 1024 1024" version="1.1" xmlns="http://www.w3.org/2000/svg" p-id="5937" xmlns:xlink="http://www.w3.org/1999/xlink" width="200" height="200"><path d="M846.767058 0a157.536615 157.536615 0 0 1 157.338617 149.660685l0.197998 7.87593v275.690577a39.384654 39.384654 0 0 1-78.49331 4.60796l-0.275998-4.60796V157.536615a78.769308 78.769308 0 0 0-72.860359-78.571309l-5.907948-0.196998H177.233942a78.769308 78.769308 0 0 0-78.572309 72.861359l-0.195998 5.906948v708.91777a78.769308 78.769308 0 0 0 72.860359 78.571309l5.907948 0.196998h315.074231a39.384654 39.384654 0 0 1 4.60796 78.492311l-4.60796 0.275997H177.232942A157.536615 157.536615 0 0 1 19.893325 874.330315l-0.196998-7.87593V157.536615A157.536615 157.536615 0 0 1 169.357012 0.196998L177.232942 0h669.532116zM669.535615 472.610846a216.613096 216.613096 0 0 1 161.082585 361.429824l99.681124 99.642124a39.384654 39.384654 0 1 1-55.689511 55.68951L767.603753 882.404244a216.613096 216.613096 0 1 1-98.067138-409.793398z m0 78.769308a137.844788 137.844788 0 1 0 0 275.689577 137.844788 137.844788 0 0 0 0-275.689577z m-255.99775-157.537616a39.384654 39.384654 0 0 1 4.60796 78.493311l-4.60796 0.274997H256.00225a39.384654 39.384654 0 0 1-4.60796-78.49231l4.60796-0.275998h157.536615zM767.99775 196.921269a39.384654 39.384654 0 0 1 4.60796 78.49331l-4.60796 0.274998H256.00225a39.384654 39.384654 0 0 1-4.60796-78.49231l4.60796-0.275998h511.9955z" p-id="5938" fill="#52946B"></path></svg>