<?xml version="1.0" encoding="UTF-8"?>
<svg width="22px" height="21px" viewBox="0 0 22 21" version="1.1" xmlns="http://www.w3.org/2000/svg" xmlns:xlink="http://www.w3.org/1999/xlink">
    <title>icon_practice</title>
    <g id="Page-1" stroke="none" stroke-width="1" fill="none" fill-rule="evenodd">
        <g id="icon_practice" transform="translate(0.4997, 0.25)" fill="#C4C7CE" fill-rule="nonzero">
            <path d="M17.2413793,3.44827586 L8.20689655,3.44827586 C7.86206897,1.51724138 6.20689655,0 4.13793103,0 C1.86206897,0 0,1.86206897 0,4.13793103 L0,15.862069 C0,18.137931 1.86206897,20 4.13793103,20 L17.2413793,20 C19.1724138,20 20.6896552,18.4827586 20.6896552,16.5517241 L20.6896552,6.89655172 C20.6896552,4.96551724 19.1724138,3.44827586 17.2413793,3.44827586 Z M4.13793103,18.6206897 C2.62068966,18.6206897 1.37931034,17.3793103 1.37931034,15.862069 C1.37931034,14.3448276 2.62068966,13.1034483 4.13793103,13.1034483 C5.65517241,13.1034483 6.89655172,14.3448276 6.89655172,15.862069 C6.89655172,17.3793103 5.65517241,18.6206897 4.13793103,18.6206897 Z M6.89655172,12.7586207 C6.13793103,12.0689655 5.17241379,11.7241379 4.13793103,11.7241379 C3.10344828,11.7241379 2.13793103,12.137931 1.37931034,12.7586207 L1.37931034,4.13793103 C1.37931034,2.62068966 2.62068966,1.37931034 4.13793103,1.37931034 C5.65517241,1.37931034 6.89655172,2.62068966 6.89655172,4.13793103 L6.89655172,12.7586207 Z M15.1724138,18.6206897 L7.24137931,18.6206897 C7.93103448,17.862069 8.27586207,16.8965517 8.27586207,15.862069 L8.27586207,4.82758621 L15.1724138,4.82758621 L15.1724138,18.6206897 Z M19.3103448,16.5517241 C19.3103448,17.7241379 18.4137931,18.6206897 17.2413793,18.6206897 L16.5517241,18.6206897 L16.5517241,4.82758621 L17.2413793,4.82758621 C18.4137931,4.82758621 19.3103448,5.72413793 19.3103448,6.89655172 L19.3103448,16.5517241 Z" id="Shape"></path>
        </g>
    </g>
</svg>