<?xml version="1.0" encoding="UTF-8"?>
<svg width="26px" height="20px" viewBox="0 0 26 20" version="1.1" xmlns="http://www.w3.org/2000/svg" xmlns:xlink="http://www.w3.org/1999/xlink">
    <title>icon_poses</title>
    <g id="Page-1" stroke="none" stroke-width="1" fill="none" fill-rule="evenodd">
        <g id="icon_poses" transform="translate(1, 1)" fill-rule="nonzero" stroke="#C4C7CE">
            <path d="M23.7866854,8.96451494 C23.5805132,8.6022902 23.2374171,8.33812068 22.8345244,8.23139105 C22.1109637,8.04520497 21.3632615,7.97033357 20.6171497,8.00935352 C21.0172173,6.02401802 20.7171666,4.45375265 20.4171159,3.52259529 C20.1635337,2.73022283 19.3501657,2.25950773 18.5367982,2.4344114 C17.5190483,2.66107822 16.5513121,3.07190002 15.6813156,3.64661625 C15.0441575,2.34503835 14.1164752,1.20725017 12.9698574,0.321054256 C12.3990943,-0.107018085 11.614295,-0.107018085 11.0435319,0.321054256 C9.8950945,1.20668753 8.96566502,2.34452001 8.32707279,3.64661625 C7.45707629,3.07190002 6.48934011,2.66107822 5.47159024,2.4344114 C4.65832266,2.25859874 3.84465112,2.72974011 3.59227264,3.52259529 C3.29222194,4.45375265 2.99217123,6.02301785 3.38623783,8.00935352 C2.64012605,7.97033357 1.89242381,8.04520497 1.16886311,8.23139105 C0.765970417,8.33812068 0.422874396,8.6022902 0.216702197,8.96451494 C0.00121017456,9.33529611 -0.056441964,9.77705562 0.0566751535,10.1907222 C0.395732452,11.4489348 1.4369084,13.8403389 4.59044133,15.7246574 C7.74397425,17.6089758 10.5144424,17.6029749 12.0066946,17.6029749 C13.4989468,17.6029749 16.2744158,17.6029749 19.4079454,15.7246574 C22.5614783,13.8403389 23.6026543,11.4489348 23.9417116,10.1907222 C24.0563342,9.77771886 24.0004883,9.33599624 23.7866854,8.96451494 Z" id="Path"></path>
            <path d="M3.85031625,9.65463156 C4.1009573,10.3260195 4.40706633,10.9753721 4.76547091,11.5959596 C5.64547624,13.1131431 6.79837299,14.4545724 8.16604558,15.5526283 C7.19893473,15.2745735 3.09957079,9.55023445 3.85031625,9.65463156 Z" id="Path"></path>
            <path d="M12.0016938,15.8426773 C11.0685361,15.14856 7.74076779,11.5317563 7.74076779,7.23102947 C7.74076779,2.98331164 10.3440425,0.195478909 12,0 C13.1989163,0 16.4523488,2.98331164 16.4523488,7.23102947 C16.4523488,11.5297559 12.9348515,15.14856 12.0016938,15.8426773 Z" id="Path"></path>
            <path d="M15.8383421,15.5516281 C17.2060147,14.4535722 18.3589115,13.1121429 19.2389168,11.5949595 C19.5973214,10.9743719 19.9034304,10.3250193 20.1540715,9.65363139 C20.9046244,9.55021269 16.8054032,15.2738886 15.8383421,15.5516281 Z" id="Path"></path>
        </g>
    </g>
</svg>